HIERARCHY
ROOT mixamorig:Hips
{
	OFFSET -0.000008 104.274872 1.554316
	CHANNELS 6 Xposition Yposition Zposition Xrotation Yrotation Zrotation
	JOINT mixamorig:Spine
	{
		OFFSET -0.000005 10.181595 0.131519
		CHANNELS 6 Xposition Yposition Zposition Xrotation Yrotation Zrotation
		JOINT mixamorig:Spine1
		{
			OFFSET -0.000000 9.893959 -1.470707
			CHANNELS 6 Xposition Yposition Zposition Xrotation Yrotation Zrotation
			JOINT mixamorig:Spine2
			{
				OFFSET -0.000000 9.220757 -1.370641
				CHANNELS 6 Xposition Yposition Zposition Xrotation Yrotation Zrotation
				JOINT mixamorig:Neck
				{
					OFFSET 0.000001 16.740417 -2.049036
					CHANNELS 6 Xposition Yposition Zposition Xrotation Yrotation Zrotation
					JOINT mixamorig:Head
					{
						OFFSET 0.000000 9.617874 1.685006
						CHANNELS 6 Xposition Yposition Zposition Xrotation Yrotation Zrotation
						JOINT mixamorig:HeadTop_End
						{
							OFFSET 0.000002 22.037354 7.501101
							CHANNELS 6 Xposition Yposition Zposition Xrotation Yrotation Zrotation
							End Site
							{
								OFFSET 0.000168 2310.654297 -282.823242
							}
						}
					}
				}
				JOINT mixamorig:RightShoulder
				{
					OFFSET -4.569970 11.014908 -2.160885
					CHANNELS 6 Xposition Yposition Zposition Xrotation Yrotation Zrotation
					JOINT mixamorig:RightArm
					{
						OFFSET -10.592851 -0.524811 -2.232101
						CHANNELS 6 Xposition Yposition Zposition Xrotation Yrotation Zrotation
						JOINT mixamorig:RightForeArm
						{
							OFFSET -27.841511 0.000031 -0.000004
							CHANNELS 6 Xposition Yposition Zposition Xrotation Yrotation Zrotation
							JOINT mixamorig:RightHand
							{
								OFFSET -28.328831 -0.000015 0.000015
								CHANNELS 6 Xposition Yposition Zposition Xrotation Yrotation Zrotation
								JOINT mixamorig:RightHandThumb1
								{
									OFFSET -2.464806 -1.573990 2.681852
									CHANNELS 6 Xposition Yposition Zposition Xrotation Yrotation Zrotation
									JOINT mixamorig:RightHandThumb2
									{
										OFFSET -3.215179 -1.872803 1.924282
										CHANNELS 6 Xposition Yposition Zposition Xrotation Yrotation Zrotation
										JOINT mixamorig:RightHandThumb3
										{
											OFFSET -2.654831 -1.527969 1.512609
											CHANNELS 6 Xposition Yposition Zposition Xrotation Yrotation Zrotation
											JOINT mixamorig:RightHandThumb4
											{
												OFFSET -2.018814 -1.152008 1.108052
												CHANNELS 6 Xposition Yposition Zposition Xrotation Yrotation Zrotation
												End Site
												{
													OFFSET -188.809540 -114.533607 132.431396
												}
											}
										}
									}
								}
								JOINT mixamorig:RightHandIndex1
								{
									OFFSET -9.108284 -0.517868 2.259835
									CHANNELS 6 Xposition Yposition Zposition Xrotation Yrotation Zrotation
									JOINT mixamorig:RightHandIndex2
									{
										OFFSET -3.699989 0.000000 0.001215
										CHANNELS 6 Xposition Yposition Zposition Xrotation Yrotation Zrotation
										JOINT mixamorig:RightHandIndex3
										{
											OFFSET -2.850006 0.000031 -0.000522
											CHANNELS 6 Xposition Yposition Zposition Xrotation Yrotation Zrotation
											JOINT mixamorig:RightHandIndex4
											{
												OFFSET -2.772186 -0.000015 -0.000020
												CHANNELS 6 Xposition Yposition Zposition Xrotation Yrotation Zrotation
												End Site
												{
													OFFSET -277.218445 0.000000 -0.050231
												}
											}
										}
									}
								}
								JOINT mixamorig:RightHandMiddle1
								{
									OFFSET -9.532516 -0.000031 -0.000023
									CHANNELS 6 Xposition Yposition Zposition Xrotation Yrotation Zrotation
									JOINT mixamorig:RightHandMiddle2
									{
										OFFSET -3.700005 -0.000015 0.003713
										CHANNELS 6 Xposition Yposition Zposition Xrotation Yrotation Zrotation
										JOINT mixamorig:RightHandMiddle3
										{
											OFFSET -2.949974 0.000015 -0.002054
											CHANNELS 6 Xposition Yposition Zposition Xrotation Yrotation Zrotation
											JOINT mixamorig:RightHandMiddle4
											{
												OFFSET -2.946640 0.000000 -0.000156
												CHANNELS 6 Xposition Yposition Zposition Xrotation Yrotation Zrotation
												End Site
												{
													OFFSET -294.664337 0.000000 -0.113670
												}
											}
										}
									}
								}
								JOINT mixamorig:RightHandRing1
								{
									OFFSET -9.103600 -0.043076 -1.865134
									CHANNELS 6 Xposition Yposition Zposition Xrotation Yrotation Zrotation
									JOINT mixamorig:RightHandRing2
									{
										OFFSET -3.379288 0.000000 -0.001055
										CHANNELS 6 Xposition Yposition Zposition Xrotation Yrotation Zrotation
										JOINT mixamorig:RightHandRing3
										{
											OFFSET -2.889687 -0.000015 0.000379
											CHANNELS 6 Xposition Yposition Zposition Xrotation Yrotation Zrotation
											JOINT mixamorig:RightHandRing4
											{
												OFFSET -2.638809 -0.000015 0.000941
												CHANNELS 6 Xposition Yposition Zposition Xrotation Yrotation Zrotation
												End Site
												{
													OFFSET -263.880371 0.000000 0.516020
												}
											}
										}
									}
								}
								JOINT mixamorig:RightHandPinky1
								{
									OFFSET -8.076683 -0.486710 -3.806280
									CHANNELS 6 Xposition Yposition Zposition Xrotation Yrotation Zrotation
									JOINT mixamorig:RightHandPinky2
									{
										OFFSET -3.600014 -0.000015 -0.003747
										CHANNELS 6 Xposition Yposition Zposition Xrotation Yrotation Zrotation
										JOINT mixamorig:RightHandPinky3
										{
											OFFSET -2.099983 0.000000 -0.005739
											CHANNELS 6 Xposition Yposition Zposition Xrotation Yrotation Zrotation
											JOINT mixamorig:RightHandPinky4
											{
												OFFSET -2.115768 -0.000031 -0.003680
												CHANNELS 6 Xposition Yposition Zposition Xrotation Yrotation Zrotation
												End Site
												{
													OFFSET -211.577087 0.000000 -0.350686
												}
											}
										}
									}
								}
							}
						}
					}
				}
				JOINT mixamorig:LeftShoulder
				{
					OFFSET 4.570447 11.014725 -2.160855
					CHANNELS 6 Xposition Yposition Zposition Xrotation Yrotation Zrotation
					JOINT mixamorig:LeftArm
					{
						OFFSET 10.592371 -0.524597 -2.232119
						CHANNELS 6 Xposition Yposition Zposition Xrotation Yrotation Zrotation
						JOINT mixamorig:LeftForeArm
						{
							OFFSET 27.841532 -0.000031 0.000026
							CHANNELS 6 Xposition Yposition Zposition Xrotation Yrotation Zrotation
							JOINT mixamorig:LeftHand
							{
								OFFSET 28.328846 -0.000061 0.000022
								CHANNELS 6 Xposition Yposition Zposition Xrotation Yrotation Zrotation
								JOINT mixamorig:LeftHandThumb1
								{
									OFFSET 2.466141 -1.576172 2.681732
									CHANNELS 6 Xposition Yposition Zposition Xrotation Yrotation Zrotation
									JOINT mixamorig:LeftHandThumb2
									{
										OFFSET 3.217812 -1.872070 1.916482
										CHANNELS 6 Xposition Yposition Zposition Xrotation Yrotation Zrotation
										JOINT mixamorig:LeftHandThumb3
										{
											OFFSET 2.656029 -1.528778 1.514513
											CHANNELS 6 Xposition Yposition Zposition Xrotation Yrotation Zrotation
											JOINT mixamorig:LeftHandThumb4
											{
												OFFSET 2.020889 -1.154053 1.115139
												CHANNELS 6 Xposition Yposition Zposition Xrotation Yrotation Zrotation
												End Site
												{
													OFFSET 190.885437 -115.081749 130.048782
												}
											}
										}
									}
								}
								JOINT mixamorig:LeftHandIndex1
								{
									OFFSET 9.109314 -0.518021 2.259871
									CHANNELS 6 Xposition Yposition Zposition Xrotation Yrotation Zrotation
									JOINT mixamorig:LeftHandIndex2
									{
										OFFSET 3.699989 0.000000 -0.000322
										CHANNELS 6 Xposition Yposition Zposition Xrotation Yrotation Zrotation
										JOINT mixamorig:LeftHandIndex3
										{
											OFFSET 2.850006 0.000000 0.000352
											CHANNELS 6 Xposition Yposition Zposition Xrotation Yrotation Zrotation
											JOINT mixamorig:LeftHandIndex4
											{
												OFFSET 2.774864 -0.000031 -0.000027
												CHANNELS 6 Xposition Yposition Zposition Xrotation Yrotation Zrotation
												End Site
												{
													OFFSET 277.486267 0.000000 -0.009857
												}
											}
										}
									}
								}
								JOINT mixamorig:LeftHandMiddle1
								{
									OFFSET 9.533394 0.000061 0.000044
									CHANNELS 6 Xposition Yposition Zposition Xrotation Yrotation Zrotation
									JOINT mixamorig:LeftHandMiddle2
									{
										OFFSET 3.699989 -0.000015 -0.000231
										CHANNELS 6 Xposition Yposition Zposition Xrotation Yrotation Zrotation
										JOINT mixamorig:LeftHandMiddle3
										{
											OFFSET 2.949997 -0.000015 -0.000059
											CHANNELS 6 Xposition Yposition Zposition Xrotation Yrotation Zrotation
											JOINT mixamorig:LeftHandMiddle4
											{
												OFFSET 2.952896 0.000031 0.000063
												CHANNELS 6 Xposition Yposition Zposition Xrotation Yrotation Zrotation
												End Site
												{
													OFFSET 295.289337 0.000000 0.022810
												}
											}
										}
									}
								}
								JOINT mixamorig:LeftHandRing1
								{
									OFFSET 9.104523 -0.042999 -1.865074
									CHANNELS 6 Xposition Yposition Zposition Xrotation Yrotation Zrotation
									JOINT mixamorig:LeftHandRing2
									{
										OFFSET 3.150009 -0.000031 0.000043
										CHANNELS 6 Xposition Yposition Zposition Xrotation Yrotation Zrotation
										JOINT mixamorig:LeftHandRing3
										{
											OFFSET 2.949982 -0.000015 0.000040
											CHANNELS 6 Xposition Yposition Zposition Xrotation Yrotation Zrotation
											JOINT mixamorig:LeftHandRing4
											{
												OFFSET 2.644348 0.000000 0.000057
												CHANNELS 6 Xposition Yposition Zposition Xrotation Yrotation Zrotation
												End Site
												{
													OFFSET 264.434631 0.000000 0.012105
												}
											}
										}
									}
								}
								JOINT mixamorig:LeftHandPinky1
								{
									OFFSET 8.077789 -0.486847 -3.806259
									CHANNELS 6 Xposition Yposition Zposition Xrotation Yrotation Zrotation
									JOINT mixamorig:LeftHandPinky2
									{
										OFFSET 3.599953 0.000031 0.014727
										CHANNELS 6 Xposition Yposition Zposition Xrotation Yrotation Zrotation
										JOINT mixamorig:LeftHandPinky3
										{
											OFFSET 2.100021 0.000015 0.007705
											CHANNELS 6 Xposition Yposition Zposition Xrotation Yrotation Zrotation
											JOINT mixamorig:LeftHandPinky4
											{
												OFFSET 2.125504 0.000031 0.007517
												CHANNELS 6 Xposition Yposition Zposition Xrotation Yrotation Zrotation
												End Site
												{
													OFFSET 212.550781 0.000000 0.625752
												}
											}
										}
									}
								}
							}
						}
					}
				}
			}
		}
	}
	JOINT mixamorig:RightUpLeg
	{
		OFFSET -8.207787 -6.751648 -1.599560
		CHANNELS 6 Xposition Yposition Zposition Xrotation Yrotation Zrotation
		JOINT mixamorig:RightLeg
		{
			OFFSET -0.000002 -44.370117 0.345942
			CHANNELS 6 Xposition Yposition Zposition Xrotation Yrotation Zrotation
			JOINT mixamorig:RightFoot
			{
				OFFSET 0.000003 -44.423679 -3.043532
				CHANNELS 6 Xposition Yposition Zposition Xrotation Yrotation Zrotation
				JOINT mixamorig:RightToeBase
				{
					OFFSET -0.000002 -8.728671 10.710558
					CHANNELS 6 Xposition Yposition Zposition Xrotation Yrotation Zrotation
					JOINT mixamorig:RightToe_End
					{
						OFFSET -0.000001 -0.000679 9.278119
						CHANNELS 6 Xposition Yposition Zposition Xrotation Yrotation Zrotation
						End Site
						{
							OFFSET 0.000000 -0.067690 927.812134
						}
					}
				}
			}
		}
	}
	JOINT mixamorig:LeftUpLeg
	{
		OFFSET 8.207793 -6.751686 -1.599556
		CHANNELS 6 Xposition Yposition Zposition Xrotation Yrotation Zrotation
		JOINT mixamorig:LeftLeg
		{
			OFFSET -0.000004 -44.370014 0.346954
			CHANNELS 6 Xposition Yposition Zposition Xrotation Yrotation Zrotation
			JOINT mixamorig:LeftFoot
			{
				OFFSET -0.000001 -44.423672 -3.044401
				CHANNELS 6 Xposition Yposition Zposition Xrotation Yrotation Zrotation
				JOINT mixamorig:LeftToeBase
				{
					OFFSET -0.000002 -8.728669 10.710558
					CHANNELS 6 Xposition Yposition Zposition Xrotation Yrotation Zrotation
					JOINT mixamorig:LeftToe_End
					{
						OFFSET -0.000003 -0.000679 9.278133
						CHANNELS 6 Xposition Yposition Zposition Xrotation Yrotation Zrotation
						End Site
						{
							OFFSET 0.000000 -0.068021 927.813477
						}
					}
				}
			}
		}
	}
}
MOTION
Frames: 3
Frame Time: 0.033333
0.000006 104.270477 1.554256 0.000010 0.000003 -0.000113 -0.000005 10.181587 0.131522 0.000001 -0.000003 0.000084 -0.000000 9.893967 -1.470711 0.000001 0.000000 -0.000000 -0.000000 9.220802 -1.370642 0.000000 -0.000000 -0.000000 0.000001 16.740433 -2.049030 0.000000 -0.000000 -0.000000 0.000000 9.617859 1.685014 0.000000 0.000000 0.000000 0.000002 22.037384 7.501101 0.000000 -0.000000 0.000000 -4.569968 11.014880 -2.160881 0.000008 0.000001 -0.000038 -10.592875 -0.524759 -2.231916 74.000803 27.490051 -20.887854 -27.841518 0.000012 0.000529 -55.468260 109.182896 72.973126 -28.328829 0.000021 0.000023 -0.000325 -0.000044 0.000007 -2.464411 -1.573801 2.682336 -45.299263 -163.155010 -3.324332 -3.215282 -1.872583 1.924652 154.084532 31.421893 3.075467 -2.654964 -1.527880 1.513069 147.659073 27.119929 -33.865068 -2.018834 -1.151993 1.108067 -0.000005 -0.000001 0.000002 -9.108376 -0.517568 2.260163 108.172083 16.448789 -22.636331 -3.700077 0.000317 0.001554 104.686105 13.118904 -16.919856 -2.850076 0.000373 -0.000215 104.171026 10.709863 -13.723241 -2.772169 0.000000 -0.000021 -0.000001 0.000000 -0.000001 -9.532593 0.000254 0.000269 93.878478 17.829391 -19.211341 -3.700097 0.000329 0.003965 93.118325 13.401634 -14.042936 -2.950046 0.000334 -0.001808 94.477827 11.260906 -12.162990 -2.946624 0.000002 -0.000151 0.000001 0.000000 -0.000000 -9.103706 -0.042772 -1.864868 89.490983 21.446965 -21.215688 -3.379354 0.000319 -0.000811 91.282009 11.742413 -12.024396 -2.889748 0.000344 0.000630 95.529129 6.241262 -6.922822 -2.638802 0.000000 0.000940 -0.000004 -0.000000 0.000000 -8.076764 -0.486412 -3.806069 77.032164 19.179135 -15.192707 -3.600044 0.000264 -0.003577 77.883800 8.536726 -6.614262 -2.100009 0.000315 -0.005547 79.847582 4.036565 -3.198761 -2.115777 -0.000056 -0.003682 0.000002 -0.000001 -0.000005 4.570446 11.014691 -2.160851 -0.000018 0.000010 -0.000021 10.592413 -0.524471 -2.232381 72.887933 -17.155555 12.711710 27.841829 0.000065 -0.000193 106.547768 -71.226961 87.665287 28.328810 -0.000029 0.000024 0.000022 -0.000088 -0.000000 2.465957 -1.576128 2.681910 -46.026230 162.357189 5.908348 3.217803 -1.871772 1.916375 151.873218 -29.860064 6.003542 2.656091 -1.528588 1.514436 141.141297 -28.249560 31.104292 2.020890 -1.154085 1.115153 -0.000000 -0.000001 0.000003 9.109385 -0.517842 2.259741 88.758281 -12.988651 12.700723 3.700029 0.000157 -0.000455 88.311908 -13.365192 12.996961 2.850073 0.000194 0.000204 88.051042 -13.066440 12.631696 2.774888 -0.000014 -0.000028 0.000001 -0.000000 -0.000000 9.533459 0.000233 -0.000083 88.139876 -12.210015 11.814475 3.700059 0.000180 -0.000378 91.648271 -15.087932 15.520206 2.950081 0.000158 -0.000184 87.732673 -21.029637 20.233740 2.952861 -0.000045 0.000066 0.000001 0.000000 -0.000001 9.104585 -0.042829 -1.865223 88.065584 -14.351675 13.881719 3.150069 0.000178 -0.000081 94.414743 -17.694981 19.090686 2.950031 0.000159 -0.000049 96.803165 -20.346811 22.856593 2.644318 0.000029 0.000057 0.000002 0.000001 -0.000000 8.077850 -0.486753 -3.806396 69.564261 -18.949854 13.652627 3.599999 0.000143 0.014570 72.073201 -15.310800 11.555191 2.100047 0.000151 0.007551 75.535451 -14.892958 11.954697 2.125513 0.000000 0.007518 -0.000001 0.000001 -0.000001 -8.207786 -6.751667 -1.599560 -0.077001 -0.000003 0.000080 -0.000002 -44.370110 0.345938 0.153719 -0.000000 -0.000000 0.000000 -44.423679 -3.043532 -0.076700 0.000000 -0.000002 -0.000006 -8.728667 10.710559 -0.000009 -0.000000 -0.000000 -0.000001 -0.000679 9.278123 0.000000 -0.000000 -0.000000 8.207792 -6.751710 -1.599556 -0.074518 -0.000003 0.000081 -0.000002 -44.370014 0.346960 0.148822 0.000002 0.000000 -0.000001 -44.423664 -3.044403 -0.074314 0.000000 -0.000002 -0.000004 -8.728671 10.710558 0.000007 -0.000000 -0.000000 0.000000 -0.000680 9.278137 -0.000000 0.000000 -0.000001 
0.000006 104.270477 1.554256 0.000010 0.000003 -0.000113 -0.000005 10.181587 0.131522 0.000001 -0.000003 0.000084 -0.000000 9.893967 -1.470711 0.000001 0.000000 -0.000000 -0.000000 9.220802 -1.370642 0.000000 -0.000000 -0.000000 0.000001 16.740433 -2.049030 0.000000 -0.000000 -0.000000 0.000000 9.617859 1.685014 0.000000 0.000000 0.000000 0.000002 22.037384 7.501101 0.000000 -0.000000 0.000000 -4.569968 11.014880 -2.160881 0.000008 0.000001 -0.000038 -10.592870 -0.524782 -2.231874 75.195677 36.822246 -28.753696 -27.841536 0.000014 0.000544 -52.602859 106.121933 66.638720 -28.328821 0.000023 0.000029 -0.000321 -0.000045 0.000007 -2.464415 -1.573770 2.682329 -47.476331 -165.083951 -8.737140 -3.215275 -1.872562 1.924633 149.874199 32.081197 12.258342 -2.654957 -1.527847 1.513048 146.607251 28.262179 -23.083555 -2.018839 -1.152007 1.108054 0.000003 -0.000002 0.000007 -9.108364 -0.517554 2.260153 107.819700 15.443775 -21.137907 -3.700053 0.000306 0.001536 106.067961 13.289409 -17.566167 -2.850088 0.000363 -0.000226 104.653798 11.390762 -14.718308 -2.772171 -0.000015 -0.000018 -0.000001 -0.000002 -0.000000 -9.532609 0.000260 0.000226 92.331003 18.999010 -19.924847 -3.700068 0.000308 0.003975 94.553375 13.940873 -14.978082 -2.950061 0.000339 -0.001787 96.184677 12.796315 -14.235637 -2.946622 -0.000014 -0.000154 -0.000003 -0.000001 -0.000001 -9.103709 -0.042785 -1.864887 89.132568 23.902662 -23.507138 -3.379360 0.000291 -0.000802 92.889787 13.425382 -14.132370 -2.889779 0.000354 0.000660 98.852542 8.624569 -10.119246 -2.638808 -0.000006 0.000939 -0.000001 -0.000002 -0.000000 -8.076771 -0.486421 -3.806067 75.081647 23.964410 -18.400197 -3.600065 0.000257 -0.003554 76.023974 14.124740 -10.761713 -2.100028 0.000293 -0.005522 79.927161 7.948805 -6.474032 -2.115770 -0.000054 -0.003680 0.000002 -0.000004 -0.000002 4.570446 11.014691 -2.160851 -0.000018 0.000010 -0.000021 10.592412 -0.524474 -2.232356 73.058695 -17.081868 12.695934 27.841835 0.000053 -0.000187 108.347967 -73.561335 92.000633 28.328833 -0.000044 0.000014 0.000019 -0.000088 -0.000000 2.465968 -1.576150 2.681913 -40.963605 163.529209 -7.216103 3.217811 -1.871778 1.916389 159.559380 -28.672803 13.847431 2.656101 -1.528643 1.514451 140.906120 -27.534485 46.761569 2.020891 -1.154071 1.115147 -0.000001 0.000002 0.000002 9.109373 -0.517828 2.259738 93.374826 -15.333505 16.239278 3.700038 0.000190 -0.000472 90.699387 -9.809501 9.945869 2.850040 0.000228 0.000194 90.290620 -7.757505 7.795591 2.774876 -0.000031 -0.000025 0.000006 0.000000 -0.000002 9.533472 0.000226 -0.000070 94.041965 -15.316983 16.413322 3.700025 0.000203 -0.000389 91.279017 -9.218386 9.422935 2.950052 0.000199 -0.000201 92.548414 -11.130201 11.636214 2.952858 -0.000046 0.000061 0.000002 0.000000 -0.000000 9.104586 -0.042829 -1.865226 92.287474 -15.120826 15.731334 3.150052 0.000230 -0.000085 97.073483 -10.027242 11.342287 2.950031 0.000193 -0.000074 98.987104 -11.010535 12.876145 2.644318 0.000030 0.000054 -0.000002 0.000000 -0.000000 8.077835 -0.486735 -3.806412 73.120290 -16.954983 13.059836 3.600001 0.000177 0.014565 74.410772 -13.643111 10.771221 2.100041 0.000165 0.007541 75.831335 -11.544738 9.380956 2.125498 -0.000015 0.007515 0.000000 -0.000001 -0.000001 -8.207786 -6.751667 -1.599560 -0.077001 -0.000003 0.000080 -0.000002 -44.370110 0.345938 0.153719 -0.000000 -0.000000 0.000000 -44.423679 -3.043532 -0.076700 0.000000 -0.000002 -0.000006 -8.728667 10.710559 -0.000009 -0.000000 -0.000000 -0.000001 -0.000679 9.278123 0.000000 -0.000000 -0.000000 8.207792 -6.751710 -1.599556 -0.074518 -0.000003 0.000081 -0.000002 -44.370014 0.346960 0.148822 0.000002 0.000000 -0.000001 -44.423664 -3.044403 -0.074314 0.000000 -0.000002 -0.000004 -8.728671 10.710558 0.000007 -0.000000 -0.000000 0.000000 -0.000680 9.278137 -0.000000 0.000000 -0.000001 
0.000006 104.270477 1.554256 0.000010 0.000003 -0.000113 -0.000005 10.181587 0.131522 0.000001 -0.000003 0.000084 -0.000000 9.893967 -1.470711 0.000001 0.000000 -0.000000 -0.000000 9.220802 -1.370642 0.000000 -0.000000 -0.000000 0.000001 16.740433 -2.049030 0.000000 -0.000000 -0.000000 0.000000 9.617859 1.685014 0.000000 0.000000 0.000000 0.000002 22.037384 7.501101 0.000000 -0.000000 0.000000 -4.569968 11.014880 -2.160881 0.000008 0.000001 -0.000038 -10.592854 -0.524803 -2.231827 75.724607 44.287138 -35.111380 -27.841530 0.000004 0.000538 -50.858552 102.954467 61.695384 -28.328823 -0.000005 0.000020 -0.000321 -0.000043 0.000008 -2.464417 -1.573760 2.682315 -49.093737 -166.920903 -13.059288 -3.215267 -1.872561 1.924634 149.769642 31.960692 11.472308 -2.654974 -1.527856 1.513046 147.062852 28.323768 -21.985281 -2.018838 -1.151997 1.108060 -0.000002 -0.000002 0.000004 -9.108377 -0.517562 2.260174 107.909974 15.706380 -21.527325 -3.700056 0.000310 0.001552 105.702710 13.298887 -17.464305 -2.850096 0.000367 -0.000213 104.594580 11.385147 -14.695558 -2.772178 -0.000000 -0.000022 0.000001 -0.000003 -0.000000 -9.532612 0.000256 0.000232 92.352996 19.579492 -20.536449 -3.700074 0.000318 0.003984 94.172538 14.245349 -15.206105 -2.950054 0.000339 -0.001798 95.865646 12.852819 -14.219373 -2.946647 -0.000000 -0.000155 -0.000001 0.000000 -0.000000 -9.103720 -0.042790 -1.864864 89.136079 24.607787 -24.203784 -3.379342 0.000299 -0.000799 92.541366 13.913963 -14.557638 -2.889743 0.000335 0.000648 98.798147 8.748432 -10.253874 -2.638813 -0.000003 0.000940 0.000000 -0.000000 -0.000002 -8.076765 -0.486423 -3.806060 75.537091 24.897986 -19.285036 -3.600082 0.000246 -0.003573 75.609238 14.721856 -11.146122 -2.100023 0.000294 -0.005532 79.617958 8.156351 -6.611381 -2.115785 -0.000045 -0.003677 0.000003 -0.000002 -0.000005 4.570446 11.014691 -2.160851 -0.000018 0.000010 -0.000021 10.592459 -0.524463 -2.232403 73.444826 -32.428140 24.478920 27.841831 0.000034 -0.000173 110.081449 -76.765780 97.133841 28.328823 -0.000027 0.000019 0.000023 -0.000088 -0.000003 2.466003 -1.576163 2.681921 -37.323179 161.300272 -15.066202 3.217828 -1.871764 1.916387 159.911831 -28.655454 13.915172 2.656084 -1.528654 1.514465 141.806434 -27.303862 46.444006 2.020891 -1.154081 1.115146 -0.000002 0.000001 0.000002 9.109383 -0.517837 2.259732 95.352835 -16.533648 18.115873 3.700038 0.000203 -0.000468 91.783071 -10.591977 10.941809 2.850047 0.000226 0.000201 91.437600 -8.571604 8.787297 2.774873 -0.000030 -0.000026 0.000001 -0.000001 -0.000001 9.533472 0.000227 -0.000081 94.268406 -16.754905 18.021879 3.700052 0.000192 -0.000385 91.334751 -9.628875 9.852081 2.950042 0.000179 -0.000203 92.697750 -11.463232 12.015181 2.952882 -0.000015 0.000057 0.000002 0.000001 -0.000000 9.104588 -0.042840 -1.865201 91.935617 -16.887492 17.461088 3.150043 0.000226 -0.000099 96.941018 -10.619373 11.983185 2.950021 0.000213 -0.000082 98.945283 -11.134229 13.010918 2.644323 0.000012 0.000058 0.000001 0.000001 0.000001 8.077839 -0.486739 -3.806395 72.100631 -18.366705 13.866893 3.600000 0.000153 0.014589 74.030235 -14.818492 11.595213 2.100049 0.000164 0.007550 75.915674 -12.404034 10.072366 2.125504 -0.000000 0.007511 -0.000000 -0.000001 -0.000000 -8.207786 -6.751667 -1.599560 -0.077001 -0.000003 0.000080 -0.000002 -44.370110 0.345938 0.153719 -0.000000 -0.000000 0.000000 -44.423679 -3.043532 -0.076700 0.000000 -0.000002 -0.000006 -8.728667 10.710559 -0.000009 -0.000000 -0.000000 -0.000001 -0.000679 9.278123 0.000000 -0.000000 -0.000000 8.207792 -6.751710 -1.599556 -0.074518 -0.000003 0.000081 -0.000002 -44.370014 0.346960 0.148822 0.000002 0.000000 -0.000001 -44.423664 -3.044403 -0.074314 0.000000 -0.000002 -0.000004 -8.728671 10.710558 0.000007 -0.000000 -0.000000 0.000000 -0.000680 9.278137 -0.000000 0.000000 -0.000001 
